<svg width="429" height="74" viewBox="0 0 429 74" fill="none" xmlns="http://www.w3.org/2000/svg">
<path d="M15.56 63.36C18.12 63.36 20.36 63.36 22.28 63.36C24.2 63.296 26.088 62.816 27.944 61.92C29.032 61.344 29.96 60.64 30.728 59.808C31.56 58.912 32.168 57.888 32.552 56.736C33 55.584 33.224 54.336 33.224 52.992C33.224 51.392 32.936 49.984 32.36 48.768C31.784 47.552 30.952 46.528 29.864 45.696C28.84 44.8 27.592 44.128 26.12 43.68C25.416 43.488 24.584 43.328 23.624 43.2C22.728 43.072 21.608 43.008 20.264 43.008C18.984 42.944 17.416 42.912 15.56 42.912C13.96 42.912 12.744 42.496 11.912 41.664C11.08 40.768 10.664 39.744 10.664 38.592C10.664 37.44 11.08 36.448 11.912 35.616C12.744 34.72 13.96 34.272 15.56 34.272C17.032 34.272 18.376 34.24 19.592 34.176C20.872 34.112 22.024 34.016 23.048 33.888C24.072 33.76 24.872 33.568 25.448 33.312C26.984 32.672 28.2 31.744 29.096 30.528C30.056 29.312 30.536 27.52 30.536 25.152C30.536 23.04 30.056 21.248 29.096 19.776C28.2 18.304 26.888 17.216 25.16 16.512C23.496 15.744 21.512 15.36 19.208 15.36C17.928 15.36 16.744 15.36 15.656 15.36C14.568 15.36 13.608 15.36 12.776 15.36C11.56 15.36 10.696 15.456 10.184 15.648C9.736 15.776 9.48 16.096 9.416 16.608C9.352 17.12 9.32 17.984 9.32 19.2C9.32 21.504 9.32 23.936 9.32 26.496C9.32 29.056 9.32 31.776 9.32 34.656C9.32 37.536 9.32 40.544 9.32 43.68C9.32 46.816 9.32 50.112 9.32 53.568C9.32 56.128 9.32 58.496 9.32 60.672C9.32 62.784 9.32 65.12 9.32 67.68C9.32 69.28 8.872 70.496 7.976 71.328C7.144 72.16 6.152 72.576 5 72.576C3.848 72.576 2.824 72.16 1.928 71.328C1.096 70.496 0.680001 69.28 0.680001 67.68C0.680001 65.568 0.680001 63.232 0.680001 60.672C0.680001 58.048 0.680001 55.68 0.680001 53.568C0.680001 51.264 0.680001 48.832 0.680001 46.272C0.680001 43.648 0.680001 40.928 0.680001 38.112C0.680001 35.232 0.680001 32.224 0.680001 29.088C0.680001 25.888 0.680001 22.592 0.680001 19.2C0.680001 16.32 1.064 13.952 1.832 12.096C2.664 10.24 3.944 8.896 5.672 8.064C7.464 7.168 9.832 6.72 12.776 6.72C14.056 6.72 15.208 6.72 16.232 6.72C17.32 6.72 18.312 6.72 19.208 6.72C22.216 6.72 24.936 7.168 27.368 8.064C29.8 8.896 31.88 10.144 33.608 11.808C35.4 13.408 36.776 15.36 37.736 17.664C38.696 19.904 39.176 22.4 39.176 25.152C39.176 28.032 38.664 30.464 37.64 32.448C36.68 34.432 35.4 36.096 33.8 37.44C32.2 38.72 30.504 39.84 28.712 40.8C27.176 41.568 25.288 42.112 23.048 42.432C20.872 42.752 18.376 42.912 15.56 42.912C14.28 42.912 13.224 42.624 12.392 42.048C11.624 41.472 11.112 40.768 10.856 39.936C10.6 39.04 10.6 38.176 10.856 37.344C11.112 36.448 11.624 35.712 12.392 35.136C13.224 34.56 14.28 34.272 15.56 34.272C16.648 34.272 17.768 34.304 18.92 34.368C20.136 34.368 21.288 34.432 22.376 34.56C23.528 34.624 24.584 34.752 25.544 34.944C26.568 35.072 27.432 35.232 28.136 35.424C30.888 36.256 33.288 37.504 35.336 39.168C37.384 40.832 38.984 42.848 40.136 45.216C41.288 47.584 41.864 50.176 41.864 52.992C41.864 55.488 41.448 57.792 40.616 59.904C39.784 62.016 38.6 63.904 37.064 65.568C35.592 67.232 33.832 68.576 31.784 69.6C30.056 70.496 28.424 71.104 26.888 71.424C25.352 71.744 23.688 71.936 21.896 72C20.104 72 17.992 72 15.56 72C13.96 72 12.744 71.584 11.912 70.752C11.08 69.856 10.664 68.832 10.664 67.68C10.664 66.528 11.08 65.536 11.912 64.704C12.744 63.808 13.96 63.36 15.56 63.36ZM65.2918 72.096C62.6038 71.136 60.2358 69.952 58.1878 68.544C56.2038 67.072 54.4438 65.184 52.9078 62.88C51.5638 60.896 50.5078 58.656 49.7398 56.16C48.9718 53.664 48.5878 50.976 48.5878 48.096C48.5878 43.296 49.6118 39.04 51.6598 35.328C53.7718 31.552 56.6198 28.608 60.2038 26.496C63.8518 24.32 67.9478 23.232 72.4918 23.232C77.0998 23.232 81.1958 24.32 84.7798 26.496C88.4278 28.608 91.2758 31.552 93.3237 35.328C95.4358 39.04 96.4918 43.296 96.4918 48.096C96.4918 50.912 96.1078 53.568 95.3398 56.064C94.6358 58.496 93.5798 60.736 92.1718 62.784C90.6358 65.152 88.8758 67.04 86.8918 68.448C84.9078 69.856 82.4758 71.072 79.5958 72.096C78.1238 72.608 76.8438 72.576 75.7558 72C74.7318 71.424 74.0278 70.592 73.6438 69.504C73.2598 68.416 73.3238 67.36 73.8358 66.336C74.3478 65.248 75.3718 64.416 76.9078 63.84C78.8278 63.2 80.3958 62.464 81.6118 61.632C82.8278 60.736 83.9798 59.52 85.0678 57.984C85.9638 56.64 86.6358 55.136 87.0838 53.472C87.5958 51.808 87.8518 50.016 87.8518 48.096C87.8518 44.96 87.1798 42.176 85.8358 39.744C84.5558 37.248 82.7638 35.328 80.4598 33.984C78.1558 32.576 75.4998 31.872 72.4918 31.872C69.4838 31.872 66.8278 32.576 64.5238 33.984C62.2198 35.328 60.4278 37.248 59.1478 39.744C57.8678 42.176 57.2278 44.96 57.2278 48.096C57.2278 50.016 57.4518 51.84 57.8998 53.568C58.4118 55.232 59.1158 56.736 60.0118 58.08C60.7158 59.104 61.4518 59.968 62.2198 60.672C63.0518 61.376 63.9478 61.984 64.9078 62.496C65.8678 63.008 66.9238 63.456 68.0758 63.84C69.6118 64.416 70.6358 65.248 71.1478 66.336C71.6598 67.36 71.7238 68.416 71.3398 69.504C70.9558 70.592 70.2198 71.424 69.1318 72C68.1078 72.576 66.8278 72.608 65.2918 72.096ZM106.586 67.776C106.586 66.368 106.586 64.768 106.586 62.976C106.586 61.12 106.586 58.976 106.586 56.544C106.586 54.112 106.586 51.264 106.586 48C106.586 43.136 107.578 38.848 109.562 35.136C111.546 31.424 114.266 28.512 117.722 26.4C121.178 24.288 125.114 23.232 129.53 23.232C133.882 23.232 137.786 24.32 141.242 26.496C144.762 28.608 147.546 31.552 149.594 35.328C151.642 39.04 152.666 43.328 152.666 48.192C152.666 51.84 152.058 55.2 150.842 58.272C149.69 61.28 148.058 63.904 145.946 66.144C143.834 68.32 141.37 70.016 138.554 71.232C135.802 72.448 132.826 73.056 129.626 73.056C126.234 73.056 123.13 72.448 120.314 71.232C117.498 70.016 115.066 68.416 113.018 66.432C110.97 64.448 109.37 62.304 108.218 60C107.13 57.632 106.586 55.328 106.586 53.088C106.586 48.096 106.586 44.032 106.586 40.896C106.586 37.76 106.586 35.104 106.586 32.928C106.586 30.688 106.586 28.576 106.586 26.592C106.586 24.608 106.586 22.304 106.586 19.68C106.586 17.632 106.586 15.872 106.586 14.4C106.586 12.864 106.586 11.392 106.586 9.984C106.586 8.576 106.586 7.008 106.586 5.27999C106.586 3.68 107.002 2.496 107.834 1.72799C108.73 0.895994 109.754 0.479994 110.906 0.479994C112.058 0.479994 113.05 0.895994 113.882 1.72799C114.778 2.496 115.226 3.68 115.226 5.27999C115.226 7.136 115.226 8.704 115.226 9.984C115.226 11.2 115.226 12.48 115.226 13.824C115.226 15.168 115.226 16.928 115.226 19.104C115.226 21.856 115.226 24.256 115.226 26.304C115.226 28.288 115.226 30.368 115.226 32.544C115.226 34.72 115.226 37.376 115.226 40.512C115.226 43.584 115.226 47.584 115.226 52.512C115.226 53.856 115.578 55.232 116.282 56.64C117.05 58.048 118.074 59.328 119.354 60.48C120.698 61.632 122.234 62.592 123.962 63.36C125.69 64.064 127.578 64.416 129.626 64.416C131.674 64.416 133.562 64.032 135.29 63.264C137.082 62.432 138.618 61.312 139.898 59.904C141.178 58.432 142.17 56.704 142.874 54.72C143.642 52.736 144.026 50.56 144.026 48.192C144.026 45.824 143.674 43.648 142.97 41.664C142.266 39.68 141.274 37.952 139.994 36.48C138.714 35.008 137.178 33.888 135.386 33.12C133.594 32.288 131.642 31.872 129.53 31.872C126.65 31.872 124.122 32.576 121.946 33.984C119.834 35.328 118.17 37.216 116.954 39.648C115.802 42.08 115.226 44.864 115.226 48C115.226 51.648 115.226 54.464 115.226 56.448C115.226 58.432 115.226 59.968 115.226 61.056C115.226 62.08 115.226 63.072 115.226 64.032C115.226 64.928 115.226 66.176 115.226 67.776C115.226 69.376 114.778 70.592 113.882 71.424C113.05 72.256 112.058 72.672 110.906 72.672C109.754 72.672 108.73 72.256 107.834 71.424C107.002 70.592 106.586 69.376 106.586 67.776ZM176.761 72.096C174.073 71.136 171.705 69.952 169.657 68.544C167.673 67.072 165.913 65.184 164.377 62.88C163.033 60.896 161.977 58.656 161.209 56.16C160.441 53.664 160.057 50.976 160.057 48.096C160.057 43.296 161.081 39.04 163.129 35.328C165.241 31.552 168.089 28.608 171.673 26.496C175.321 24.32 179.417 23.232 183.961 23.232C188.569 23.232 192.665 24.32 196.249 26.496C199.897 28.608 202.745 31.552 204.792 35.328C206.905 39.04 207.961 43.296 207.961 48.096C207.961 50.912 207.577 53.568 206.809 56.064C206.105 58.496 205.049 60.736 203.641 62.784C202.105 65.152 200.345 67.04 198.361 68.448C196.377 69.856 193.945 71.072 191.065 72.096C189.593 72.608 188.313 72.576 187.225 72C186.201 71.424 185.497 70.592 185.113 69.504C184.729 68.416 184.793 67.36 185.305 66.336C185.817 65.248 186.841 64.416 188.377 63.84C190.297 63.2 191.865 62.464 193.081 61.632C194.297 60.736 195.449 59.52 196.537 57.984C197.433 56.64 198.105 55.136 198.553 53.472C199.065 51.808 199.321 50.016 199.321 48.096C199.321 44.96 198.649 42.176 197.305 39.744C196.025 37.248 194.233 35.328 191.929 33.984C189.625 32.576 186.969 31.872 183.961 31.872C180.953 31.872 178.297 32.576 175.993 33.984C173.689 35.328 171.897 37.248 170.617 39.744C169.337 42.176 168.697 44.96 168.697 48.096C168.697 50.016 168.921 51.84 169.369 53.568C169.881 55.232 170.585 56.736 171.481 58.08C172.185 59.104 172.921 59.968 173.689 60.672C174.521 61.376 175.417 61.984 176.377 62.496C177.337 63.008 178.393 63.456 179.545 63.84C181.081 64.416 182.105 65.248 182.617 66.336C183.129 67.36 183.193 68.416 182.809 69.504C182.425 70.592 181.689 71.424 180.601 72C179.577 72.576 178.297 72.608 176.761 72.096ZM243.41 34.368C242.258 33.856 241.106 33.408 239.954 33.024C238.802 32.64 237.65 32.352 236.498 32.16C235.41 31.968 234.322 31.872 233.234 31.872C231.762 31.872 230.386 32.064 229.106 32.448C227.826 32.832 226.77 33.44 225.938 34.272C225.17 35.04 224.786 36.064 224.786 37.344C224.786 38.176 225.138 38.944 225.842 39.648C226.546 40.288 227.442 40.864 228.53 41.376C229.618 41.888 230.738 42.368 231.89 42.816C233.042 43.2 234.066 43.52 234.962 43.776C238.034 44.8 240.818 45.952 243.314 47.232C245.874 48.448 247.89 50.016 249.362 51.936C250.898 53.856 251.666 56.32 251.666 59.328C251.666 62.08 250.93 64.512 249.458 66.624C247.986 68.672 245.97 70.272 243.41 71.424C240.914 72.512 238.002 73.056 234.674 73.056C232.114 73.056 229.426 72.672 226.61 71.904C223.794 71.136 221.01 70.016 218.258 68.544C216.786 67.776 215.89 66.816 215.57 65.664C215.314 64.512 215.442 63.424 215.954 62.4C216.53 61.376 217.362 60.672 218.45 60.288C219.602 59.904 220.882 60.096 222.29 60.864C223.698 61.632 225.106 62.272 226.514 62.784C227.922 63.296 229.298 63.712 230.642 64.032C232.05 64.288 233.394 64.416 234.674 64.416C236.146 64.416 237.49 64.256 238.706 63.936C239.986 63.552 241.01 63.008 241.778 62.304C242.61 61.536 243.026 60.544 243.026 59.328C243.026 57.984 242.418 56.864 241.202 55.968C239.986 55.008 238.514 54.24 236.786 53.664C235.122 53.024 233.618 52.48 232.274 52.032C229.266 51.008 226.546 49.92 224.114 48.768C221.682 47.552 219.73 46.08 218.258 44.352C216.85 42.56 216.146 40.224 216.146 37.344C216.146 34.528 216.882 32.064 218.354 29.952C219.826 27.84 221.842 26.208 224.402 25.056C226.962 23.84 229.906 23.232 233.234 23.232C235.41 23.232 237.682 23.52 240.05 24.096C242.418 24.608 244.818 25.472 247.25 26.688C248.658 27.392 249.522 28.32 249.842 29.472C250.226 30.56 250.162 31.616 249.65 32.64C249.202 33.664 248.402 34.4 247.25 34.848C246.162 35.296 244.882 35.136 243.41 34.368ZM266.922 68.16C266.922 66.624 266.922 65.248 266.922 64.032C266.922 62.816 266.922 61.6 266.922 60.384C266.922 59.168 266.922 57.76 266.922 56.16C266.922 54.048 266.922 52.032 266.922 50.112C266.922 48.128 266.922 46.08 266.922 43.968C266.922 41.792 266.922 39.392 266.922 36.768C266.922 34.144 266.922 31.072 266.922 27.552C266.922 26.208 266.922 24.8 266.922 23.328C266.922 21.856 266.922 20.448 266.922 19.104C266.922 17.696 266.922 16.512 266.922 15.552C266.922 13.952 267.338 12.736 268.17 11.904C269.066 11.072 270.09 10.656 271.242 10.656C272.394 10.656 273.386 11.072 274.218 11.904C275.114 12.736 275.562 13.952 275.562 15.552C275.562 16.64 275.562 17.6 275.562 18.432C275.562 19.264 275.562 20.096 275.562 20.928C275.562 21.76 275.562 22.72 275.562 23.808C275.562 24.832 275.562 26.08 275.562 27.552C275.562 29.92 275.562 32.16 275.562 34.272C275.562 36.32 275.562 38.432 275.562 40.608C275.562 42.784 275.562 45.12 275.562 47.616C275.562 50.112 275.562 52.96 275.562 56.16C275.562 57.888 275.562 59.328 275.562 60.48C275.562 61.632 275.562 62.784 275.562 63.936C275.562 65.024 275.562 66.432 275.562 68.16C275.562 69.76 275.114 70.976 274.218 71.808C273.386 72.64 272.394 73.056 271.242 73.056C270.09 73.056 269.066 72.672 268.17 71.904C267.338 71.072 266.922 69.824 266.922 68.16ZM282.378 32.832C281.418 32.832 280.49 32.832 279.594 32.832C278.698 32.832 277.802 32.832 276.906 32.832C274.986 32.832 273.194 32.832 271.53 32.832C269.93 32.832 268.17 32.832 266.25 32.832C265.674 32.832 265.13 32.832 264.618 32.832C264.106 32.832 263.53 32.832 262.89 32.832C262.314 32.832 261.706 32.832 261.066 32.832C259.466 32.832 258.25 32.416 257.418 31.584C256.586 30.688 256.17 29.664 256.17 28.512C256.17 27.36 256.586 26.368 257.418 25.536C258.25 24.64 259.466 24.192 261.066 24.192C261.898 24.192 262.57 24.192 263.082 24.192C263.594 24.192 264.074 24.192 264.522 24.192C265.034 24.192 265.61 24.192 266.25 24.192C268.042 24.192 269.802 24.192 271.53 24.192C273.322 24.192 275.114 24.192 276.906 24.192C277.93 24.192 278.826 24.192 279.594 24.192C280.426 24.192 281.354 24.192 282.378 24.192C283.978 24.192 285.194 24.64 286.026 25.536C286.858 26.368 287.274 27.36 287.274 28.512C287.274 29.664 286.858 30.688 286.026 31.584C285.194 32.416 283.978 32.832 282.378 32.832ZM307.823 72.096C305.135 71.136 302.767 69.952 300.719 68.544C298.735 67.072 296.975 65.184 295.439 62.88C294.095 60.896 293.039 58.656 292.271 56.16C291.503 53.664 291.119 50.976 291.119 48.096C291.119 43.296 292.143 39.04 294.191 35.328C296.303 31.552 299.151 28.608 302.735 26.496C306.383 24.32 310.479 23.232 315.023 23.232C319.631 23.232 323.727 24.32 327.311 26.496C330.959 28.608 333.807 31.552 335.855 35.328C337.967 39.04 339.023 43.296 339.023 48.096C339.023 50.912 338.639 53.568 337.871 56.064C337.167 58.496 336.111 60.736 334.703 62.784C333.167 65.152 331.407 67.04 329.423 68.448C327.439 69.856 325.007 71.072 322.127 72.096C320.655 72.608 319.375 72.576 318.287 72C317.263 71.424 316.559 70.592 316.175 69.504C315.791 68.416 315.855 67.36 316.367 66.336C316.879 65.248 317.903 64.416 319.439 63.84C321.359 63.2 322.927 62.464 324.143 61.632C325.359 60.736 326.511 59.52 327.599 57.984C328.495 56.64 329.167 55.136 329.615 53.472C330.127 51.808 330.383 50.016 330.383 48.096C330.383 44.96 329.711 42.176 328.367 39.744C327.087 37.248 325.295 35.328 322.991 33.984C320.687 32.576 318.031 31.872 315.023 31.872C312.015 31.872 309.359 32.576 307.055 33.984C304.751 35.328 302.959 37.248 301.679 39.744C300.399 42.176 299.759 44.96 299.759 48.096C299.759 50.016 299.983 51.84 300.431 53.568C300.943 55.232 301.647 56.736 302.543 58.08C303.247 59.104 303.983 59.968 304.751 60.672C305.583 61.376 306.479 61.984 307.439 62.496C308.399 63.008 309.455 63.456 310.607 63.84C312.143 64.416 313.167 65.248 313.679 66.336C314.191 67.36 314.255 68.416 313.871 69.504C313.487 70.592 312.751 71.424 311.663 72C310.639 72.576 309.359 72.608 307.823 72.096ZM373.789 32.544C370.845 32.096 368.349 32.192 366.301 32.832C364.253 33.408 362.589 34.4 361.309 35.808C360.093 37.152 359.197 38.784 358.621 40.704C358.045 42.624 357.757 44.704 357.757 46.944C357.757 48.416 357.757 50.112 357.757 52.032C357.757 53.952 357.757 55.904 357.757 57.888C357.757 59.872 357.757 61.76 357.757 63.552C357.757 65.344 357.757 66.88 357.757 68.16C357.757 69.44 357.469 70.464 356.893 71.232C356.317 72 355.581 72.512 354.685 72.768C353.853 73.088 352.989 73.12 352.093 72.864C351.261 72.608 350.557 72.096 349.981 71.328C349.405 70.496 349.117 69.44 349.117 68.16C349.117 66.816 349.117 65.152 349.117 63.168C349.117 61.12 349.117 59.008 349.117 56.832C349.117 54.592 349.117 52.48 349.117 50.496C349.117 48.512 349.117 46.912 349.117 45.696C349.117 43.904 349.117 42.016 349.117 40.032C349.117 38.048 349.117 36.064 349.117 34.08C349.117 32.032 349.117 30.144 349.117 28.416C349.117 26.752 349.533 25.536 350.365 24.768C351.261 23.936 352.285 23.52 353.437 23.52C354.589 23.52 355.581 23.936 356.413 24.768C357.309 25.6 357.757 26.816 357.757 28.416C357.757 30.528 357.757 32.512 357.757 34.368C357.757 36.16 357.757 37.984 357.757 39.84C357.757 41.632 357.757 43.584 357.757 45.696C357.757 46.528 357.757 47.904 357.757 49.824C357.757 51.744 357.757 53.888 357.757 56.256C357.757 58.624 357.757 60.896 357.757 63.072C357.757 65.184 357.757 66.88 357.757 68.16C357.757 69.44 357.469 70.464 356.893 71.232C356.317 72 355.581 72.512 354.685 72.768C353.853 73.088 352.989 73.12 352.093 72.864C351.261 72.608 350.557 72.096 349.981 71.328C349.405 70.496 349.117 69.44 349.117 68.16C349.117 66.368 349.117 64.192 349.117 61.632C349.117 59.072 349.117 56.608 349.117 54.24C349.117 51.872 349.117 50.08 349.117 48.864C349.117 46.112 349.437 43.424 350.077 40.8C350.781 38.176 351.805 35.744 353.149 33.504C354.493 31.264 356.189 29.344 358.237 27.744C360.285 26.144 362.685 24.992 365.437 24.288C368.253 23.584 371.421 23.456 374.941 23.904C376.541 24.16 377.693 24.768 378.397 25.728C379.101 26.688 379.357 27.744 379.165 28.896C379.037 30.048 378.493 31.008 377.533 31.776C376.637 32.48 375.389 32.736 373.789 32.544ZM395.945 43.776C397.801 43.776 399.785 43.776 401.897 43.776C404.009 43.776 406.153 43.776 408.329 43.776C410.569 43.776 412.745 43.776 414.857 43.776C415.625 43.776 416.297 43.808 416.873 43.872C417.513 43.872 417.993 43.84 418.313 43.776C418.697 43.648 418.953 43.456 419.081 43.2C419.273 42.944 419.305 42.496 419.177 41.856C418.729 39.808 417.929 38.048 416.777 36.576C415.689 35.04 414.281 33.888 412.553 33.12C410.825 32.288 408.873 31.872 406.697 31.872C403.817 31.872 401.257 32.544 399.017 33.888C396.841 35.232 395.113 37.152 393.833 39.648C392.617 42.08 392.009 44.928 392.009 48.192C392.009 51.648 392.681 54.592 394.025 57.024C395.369 59.456 397.193 61.312 399.497 62.592C401.865 63.808 404.553 64.416 407.561 64.416C408.905 64.416 410.313 64.288 411.785 64.032C413.257 63.712 414.729 63.264 416.201 62.688C417.737 62.112 419.273 61.408 420.809 60.576C422.217 59.744 423.465 59.52 424.553 59.904C425.705 60.288 426.569 60.992 427.145 62.016C427.721 62.976 427.849 64.032 427.529 65.184C427.273 66.336 426.441 67.296 425.033 68.064C423.049 69.216 421.065 70.176 419.081 70.944C417.097 71.648 415.113 72.16 413.129 72.48C411.209 72.864 409.353 73.056 407.561 73.056C403.081 73.056 399.017 72.064 395.369 70.08C391.721 68.096 388.809 65.248 386.633 61.536C384.457 57.824 383.369 53.376 383.369 48.192C383.369 43.2 384.393 38.848 386.441 35.136C388.489 31.36 391.273 28.448 394.793 26.4C398.313 24.288 402.281 23.232 406.697 23.232C410.217 23.232 413.449 23.936 416.393 25.344C419.337 26.752 421.769 28.736 423.689 31.296C425.673 33.792 426.985 36.8 427.625 40.32C428.009 42.304 428.073 44.064 427.817 45.6C427.561 47.136 426.921 48.416 425.897 49.44C424.873 50.4 423.433 51.136 421.577 51.648C419.785 52.16 417.545 52.416 414.857 52.416C412.809 52.416 410.921 52.416 409.193 52.416C407.465 52.416 405.833 52.416 404.297 52.416C402.825 52.416 401.385 52.416 399.977 52.416C398.633 52.416 397.289 52.416 395.945 52.416C394.345 52.416 393.129 52 392.297 51.168C391.465 50.272 391.049 49.248 391.049 48.096C391.049 46.944 391.465 45.952 392.297 45.12C393.129 44.224 394.345 43.776 395.945 43.776Z" fill="#2DB6B6"/>
</svg>
